<svg width="40" height="40" viewBox="0 0 40 40" fill="none" xmlns="http://www.w3.org/2000/svg">
<rect width="40" height="40" rx="8" fill="#E6EBF2"/>
<path d="M22.3383 16.8037L15.2133 29.1446" stroke="#0A2533" stroke-width="1.5" stroke-linecap="round" stroke-linejoin="round"/>
<path d="M20.5665 26.8943C19.2245 27.2538 17.0812 26.181 17.0812 26.181C17.0812 26.181 18.4287 23.7832 19.9305 23.4959C21.2566 23.2423 23.2283 24.5339 23.2283 24.5339C23.2283 24.5339 21.9085 26.5347 20.5665 26.8943Z" stroke="#0A2533" stroke-width="1.5" stroke-linecap="round" stroke-linejoin="round"/>
<path d="M23.5679 21.6957C22.2259 22.0553 20.0826 20.9825 20.0826 20.9825C20.0826 20.9825 21.4301 18.5846 22.9319 18.2974C24.258 18.0437 26.2297 19.3354 26.2297 19.3354C26.2297 19.3354 24.9099 21.3361 23.5679 21.6957Z" stroke="#0A2533" stroke-width="1.5" stroke-linecap="round" stroke-linejoin="round"/>
<path d="M25.3072 14.8435C24.6125 16.0467 22.3384 16.8037 22.3384 16.8037C22.3384 16.8037 21.5957 14.1553 22.4545 12.8903C23.2128 11.7732 25.5203 11.2924 25.5203 11.2924C25.5203 11.2924 26.0018 13.6404 25.3072 14.8435Z" stroke="#0A2533" stroke-width="1.5" stroke-linecap="round" stroke-linejoin="round"/>
<path d="M14.3961 23.3318C14.7557 24.6737 16.7564 25.9936 16.7564 25.9936C16.7564 25.9936 18.1592 23.6276 17.6572 22.1835C17.2138 20.9082 15.1093 19.8464 15.1093 19.8464C15.1093 19.8464 14.0365 21.9898 14.3961 23.3318Z" stroke="#0A2533" stroke-width="1.5" stroke-linecap="round" stroke-linejoin="round"/>
<path d="M17.3975 18.1332C17.7571 19.4751 19.7579 20.7949 19.7579 20.7949C19.7579 20.7949 21.1606 18.429 20.6586 16.9848C20.2152 15.7095 18.1107 14.6478 18.1107 14.6478C18.1107 14.6478 17.0379 16.7912 17.3975 18.1332Z" stroke="#0A2533" stroke-width="1.5" stroke-linecap="round" stroke-linejoin="round"/>
</svg>
