<svg width="40" height="40" viewBox="0 0 40 40" fill="none" xmlns="http://www.w3.org/2000/svg">
<rect width="40" height="40" rx="8" fill="#E6EBF2"/>
<path d="M25.9591 28.0374C24.3671 29.6146 22.2532 30.4803 20 30.4803C17.7468 30.4803 15.633 29.6146 14.0409 28.0374C12.4548 26.4631 11.5802 24.3759 11.5802 22.1554C11.5802 20.8657 11.8707 19.6294 12.4429 18.4791C13.0003 17.3555 13.8304 16.3504 14.8384 15.5766C15.4813 15.0851 16.0644 14.5199 16.5758 13.8927C17.3169 12.9884 17.898 11.9804 18.3012 10.8983C18.4666 10.4519 18.5868 9.99009 18.66 9.51971C19.3745 10.1779 19.9733 10.9724 20.4744 11.9034C21.4646 13.7593 21.9212 15.4106 21.8322 16.8159C21.811 17.1469 21.865 17.4784 21.9903 17.7854C22.1156 18.0925 22.3089 18.3672 22.5556 18.5888C22.7694 18.7819 23.0195 18.9307 23.2913 19.0264C23.563 19.122 23.8511 19.1628 24.1388 19.1462C24.7228 19.1165 25.2594 18.8586 25.6508 18.4228C26.0451 17.981 26.386 17.5304 26.6706 17.0709C27.0857 17.6016 27.4326 18.1797 27.7083 18.8023C28.1797 19.8636 28.4198 20.9932 28.4198 22.1554C28.4198 24.3759 27.5452 26.4661 25.9591 28.0374Z" stroke="#0A2533" stroke-width="1.5" stroke-linejoin="round"/>
<path d="M21.6455 26.309C21.0065 26.942 20.1581 27.2895 19.2538 27.2895C18.3495 27.2895 17.5012 26.942 16.8622 26.309C16.2256 25.6772 15.8746 24.8395 15.8746 23.9483C15.8746 23.4307 15.9912 22.9345 16.2209 22.4729C16.4446 22.0219 16.7777 21.6185 17.1823 21.308C17.4403 21.1107 17.6743 20.8839 17.8795 20.6321C18.177 20.2692 18.4102 19.8647 18.572 19.4304C18.6384 19.2512 18.6867 19.0659 18.716 18.8771C19.0028 19.1412 19.2431 19.4601 19.4442 19.8337C19.8416 20.5786 20.0249 21.2414 19.9892 21.8054C19.9807 21.9382 20.0024 22.0712 20.0526 22.1945C20.1029 22.3177 20.1805 22.4279 20.2795 22.5169C20.3653 22.5944 20.4657 22.6541 20.5748 22.6925C20.6838 22.7309 20.7995 22.7473 20.9149 22.7406C21.1493 22.7287 21.3647 22.6252 21.5217 22.4503C21.68 22.273 21.8168 22.0921 21.9311 21.9077C22.0976 22.1207 22.2369 22.3527 22.3475 22.6026C22.5367 23.0285 22.6331 23.4819 22.6331 23.9483C22.6331 24.8395 22.2821 25.6784 21.6455 26.309Z" stroke="#0A2533" stroke-width="1.5" stroke-linejoin="round"/>
</svg>
