<svg width="60" height="60" viewBox="0 0 60 60" fill="none" xmlns="http://www.w3.org/2000/svg">
<g filter="url(#filter0_d_1156_1396)">
<rect x="16" y="14" width="28" height="28" rx="10" fill="white"/>
</g>
<path d="M33.9968 21.5535C33.5775 21.4128 33.1365 21.3505 32.6948 21.3505C31.7218 21.3435 30.7775 21.6655 29.9998 22.2598C29.9368 22.2115 29.8598 22.1688 29.7898 22.1275C29.7198 22.0848 29.5938 21.9805 29.4888 21.9245L29.2228 21.8055C29.0828 21.7285 28.9365 21.6725 28.7818 21.6228C28.7678 21.6095 28.7468 21.5948 28.7188 21.5815H28.6775C28.2638 21.4408 27.8368 21.3638 27.3958 21.3505H27.3188C27.1228 21.3505 26.9275 21.3638 26.7308 21.3925H26.6468C26.4368 21.4198 26.2275 21.4688 26.0245 21.5388C23.4128 22.3935 22.4818 25.2285 23.2728 27.7065C23.7208 28.9728 24.4425 30.1215 25.3805 31.0658C26.7448 32.3818 28.2365 33.5438 29.8388 34.5378L30.0208 34.6505L30.1958 34.5448C31.7925 33.5438 33.2758 32.3818 34.6275 31.0728C35.5718 30.1285 36.2928 28.9728 36.7338 27.7065C37.5115 25.2285 36.5805 22.3935 33.9968 21.5535Z" fill="#70B9BE"/>
<path d="M35.1098 25.8578C35.0888 26.1525 34.8438 26.3828 34.5568 26.3905C34.4028 26.3758 34.2558 26.3065 34.1578 26.1875C34.0598 26.0685 34.0115 25.9138 34.0248 25.7535V25.7318C34.0248 25.2425 33.7245 24.8008 33.2758 24.6328C32.9818 24.5285 32.8278 24.2065 32.9258 23.9125C33.0308 23.6185 33.3458 23.4638 33.6328 23.5625C34.5365 23.9055 35.1308 24.7938 35.1098 25.7745V25.8578Z" fill="#C6E3E5"/>
<defs>
<filter id="filter0_d_1156_1396" x="0" y="0" width="60" height="60" filterUnits="userSpaceOnUse" color-interpolation-filters="sRGB">
<feFlood flood-opacity="0" result="BackgroundImageFix"/>
<feColorMatrix in="SourceAlpha" type="matrix" values="0 0 0 0 0 0 0 0 0 0 0 0 0 0 0 0 0 0 127 0" result="hardAlpha"/>
<feOffset dy="2"/>
<feGaussianBlur stdDeviation="8"/>
<feComposite in2="hardAlpha" operator="out"/>
<feColorMatrix type="matrix" values="0 0 0 0 0.0221354 0 0 0 0 0.200297 0 0 0 0 0.2125 0 0 0 0.1 0"/>
<feBlend mode="normal" in2="BackgroundImageFix" result="effect1_dropShadow_1156_1396"/>
<feBlend mode="normal" in="SourceGraphic" in2="effect1_dropShadow_1156_1396" result="shape"/>
</filter>
</defs>
</svg>
